HIERARCHY
ROOT Hips
{
    OFFSET   0.000000   0.000000   0.000000
    CHANNELS 6 Xposition Yposition Zposition Zrotation Xrotation Yrotation
    JOINT Chest
    {
        OFFSET   0.000000   8.007230   0.000000
        CHANNELS 3 Zrotation Xrotation Yrotation
        JOINT Chest2
        {
            OFFSET   0.000000  22.077100   0.000000
            CHANNELS 3 Zrotation Xrotation Yrotation
            JOINT Neck
            {
                OFFSET   0.000000  23.254800   0.000000
                CHANNELS 3 Zrotation Xrotation Yrotation
                JOINT Head
                {
                    OFFSET   0.000010  14.370000   1.956600
                    CHANNELS 3 Zrotation Xrotation Yrotation
                    End Site
                    {
                        OFFSET   0.000000  19.566000   0.000000
                    }
                }
            }
            JOINT LeftCollar
            {
                OFFSET   3.911900  19.017000  -0.467062
                CHANNELS 3 Zrotation Xrotation Yrotation
                JOINT LeftShoulder
                {
                    OFFSET  10.383700   0.000000   0.000000
                    CHANNELS 3 Zrotation Xrotation Yrotation
                    JOINT LeftElbow
                    {
                        OFFSET  26.662100   0.001193   0.000835
                        CHANNELS 3 Zrotation Xrotation Yrotation
                        JOINT LeftWrist
                        {
                            OFFSET  28.869000  -0.000058  -0.000075
                            CHANNELS 3 Zrotation Xrotation Yrotation
                            JOINT LeftFinger0
                            {
                                OFFSET   2.044660  -2.323460   3.252850
                                CHANNELS 3 Zrotation Xrotation Yrotation
                                JOINT LeftFinger01
                                {
                                    OFFSET   3.088130   0.000000   0.000000
                                    CHANNELS 3 Zrotation Xrotation Yrotation
                                    JOINT LeftFinger02
                                    {
                                        OFFSET   2.639450   0.000000   0.000000
                                        CHANNELS 3 Zrotation Xrotation Yrotation
                                        End Site
                                        {
                                            OFFSET   2.582190   0.000000   0.000000
                                        }
                                    }
                                }
                            }
                            JOINT LeftFinger1
                            {
                                OFFSET   8.364480   0.000000   3.252850
                                CHANNELS 3 Zrotation Xrotation Yrotation
                                JOINT LeftFinger11
                                {
                                    OFFSET   4.646920   0.000000   0.000000
                                    CHANNELS 3 Zrotation Xrotation Yrotation
                                    JOINT LeftFinger12
                                    {
                                        OFFSET   2.323460   0.000000   0.000000
                                        CHANNELS 3 Zrotation Xrotation Yrotation
                                        End Site
                                        {
                                            OFFSET   2.273050   0.000000   0.000000
                                        }
                                    }
                                }
                            }
                            JOINT LeftFinger2
                            {
                                OFFSET   8.364490   0.000016   1.078090
                                CHANNELS 3 Zrotation Xrotation Yrotation
                                JOINT LeftFinger21
                                {
                                    OFFSET   5.111620   0.000000   0.000000
                                    CHANNELS 3 Zrotation Xrotation Yrotation
                                    JOINT LeftFinger22
                                    {
                                        OFFSET   2.788150   0.000012   0.000000
                                        CHANNELS 3 Zrotation Xrotation Yrotation
                                        End Site
                                        {
                                            OFFSET   2.727660   0.000000   0.000000
                                        }
                                    }
                                }
                            }
                            JOINT LeftFinger3
                            {
                                OFFSET   7.899780   0.000014  -1.078090
                                CHANNELS 3 Zrotation Xrotation Yrotation
                                JOINT LeftFinger31
                                {
                                    OFFSET   4.646930   0.000000   0.000000
                                    CHANNELS 3 Zrotation Xrotation Yrotation
                                    JOINT LeftFinger32
                                    {
                                        OFFSET   2.323470   0.000000   0.000000
                                        CHANNELS 3 Zrotation Xrotation Yrotation
                                        End Site
                                        {
                                            OFFSET   2.273050   0.000000   0.000000
                                        }
                                    }
                                }
                            }
                            JOINT LeftFinger4
                            {
                                OFFSET   7.435090   0.000000  -3.252850
                                CHANNELS 3 Zrotation Xrotation Yrotation
                                JOINT LeftFinger41
                                {
                                    OFFSET   3.717550   0.000000   0.000000
                                    CHANNELS 3 Zrotation Xrotation Yrotation
                                    JOINT LeftFinger42
                                    {
                                        OFFSET   1.858770   0.000000   0.000000
                                        CHANNELS 3 Zrotation Xrotation Yrotation
                                        End Site
                                        {
                                            OFFSET   1.818440   0.000000   0.000000
                                        }
                                    }
                                }
                            }
                        }
                    }
                }
            }
            JOINT RightCollar
            {
                OFFSET  -3.911900  19.017000  -0.467063
                CHANNELS 3 Zrotation Xrotation Yrotation
                JOINT RightShoulder
                {
                    OFFSET -10.383700   0.000023   0.000000
                    CHANNELS 3 Zrotation Xrotation Yrotation
                    JOINT RightElbow
                    {
                        OFFSET -26.662100   0.001246   0.001011
                        CHANNELS 3 Zrotation Xrotation Yrotation
                        JOINT RightWrist
                        {
                            OFFSET -28.869000  -0.000026  -0.000078
                            CHANNELS 3 Zrotation Xrotation Yrotation
                            JOINT RightFinger0
                            {
                                OFFSET  -2.044660  -2.323490   3.252850
                                CHANNELS 3 Zrotation Xrotation Yrotation
                                JOINT RightFinger01
                                {
                                    OFFSET  -3.088130   0.000000   0.000000
                                    CHANNELS 3 Zrotation Xrotation Yrotation
                                    JOINT RightFinger02
                                    {
                                        OFFSET  -2.639460   0.000000   0.000000
                                        CHANNELS 3 Zrotation Xrotation Yrotation
                                        End Site
                                        {
                                            OFFSET  -2.582190   0.000000   0.000000
                                        }
                                    }
                                }
                            }
                            JOINT RightFinger1
                            {
                                OFFSET  -8.364480   0.000000   3.252850
                                CHANNELS 3 Zrotation Xrotation Yrotation
                                JOINT RightFinger11
                                {
                                    OFFSET  -4.646920   0.000000   0.000000
                                    CHANNELS 3 Zrotation Xrotation Yrotation
                                    JOINT RightFinger12
                                    {
                                        OFFSET  -2.323470   0.000000   0.000000
                                        CHANNELS 3 Zrotation Xrotation Yrotation
                                        End Site
                                        {
                                            OFFSET  -2.273050   0.000000   0.000000
                                        }
                                    }
                                }
                            }
                            JOINT RightFinger2
                            {
                                OFFSET  -8.364480   0.000000   1.078090
                                CHANNELS 3 Zrotation Xrotation Yrotation
                                JOINT RightFinger21
                                {
                                    OFFSET  -5.111620   0.000000   0.000000
                                    CHANNELS 3 Zrotation Xrotation Yrotation
                                    JOINT RightFinger22
                                    {
                                        OFFSET  -2.788160   0.000000   0.000000
                                        CHANNELS 3 Zrotation Xrotation Yrotation
                                        End Site
                                        {
                                            OFFSET  -2.727660   0.000000   0.000000
                                        }
                                    }
                                }
                            }
                            JOINT RightFinger3
                            {
                                OFFSET  -7.899780   0.000000  -1.078090
                                CHANNELS 3 Zrotation Xrotation Yrotation
                                JOINT RightFinger31
                                {
                                    OFFSET  -4.646930   0.000000   0.000000
                                    CHANNELS 3 Zrotation Xrotation Yrotation
                                    JOINT RightFinger32
                                    {
                                        OFFSET  -2.323470   0.000000   0.000000
                                        CHANNELS 3 Zrotation Xrotation Yrotation
                                        End Site
                                        {
                                            OFFSET  -2.273050   0.000000   0.000000
                                        }
                                    }
                                }
                            }
                            JOINT RightFinger4
                            {
                                OFFSET  -7.435090   0.000000  -3.252850
                                CHANNELS 3 Zrotation Xrotation Yrotation
                                JOINT RightFinger41
                                {
                                    OFFSET  -3.717550   0.000000   0.000000
                                    CHANNELS 3 Zrotation Xrotation Yrotation
                                    JOINT RightFinger42
                                    {
                                        OFFSET  -1.858760   0.000000   0.000000
                                        CHANNELS 3 Zrotation Xrotation Yrotation
                                        End Site
                                        {
                                            OFFSET  -1.818440   0.000000   0.000000
                                        }
                                    }
                                }
                            }
                        }
                    }
                }
            }
        }
    }
    JOINT LeftHip
    {
        OFFSET   9.783010   0.000000   0.000000
        CHANNELS 3 Zrotation Xrotation Yrotation
        JOINT LeftKnee
        {
            OFFSET   0.000073 -41.789100   0.001749
            CHANNELS 3 Zrotation Xrotation Yrotation
            JOINT LeftAnkle
            {
                OFFSET   0.000111 -41.133200  -0.000179
                CHANNELS 3 Zrotation Xrotation Yrotation
                JOINT LeftToe
                {
                    OFFSET   0.000000  -6.358960  14.674500
                    CHANNELS 3 Zrotation Xrotation Yrotation
                    End Site
                    {
                        OFFSET   0.000000   0.000000   3.913200
                    }
                }
            }
        }
    }
    JOINT RightHip
    {
        OFFSET  -9.783010   0.000000   0.000000
        CHANNELS 3 Zrotation Xrotation Yrotation
        JOINT RightKnee
        {
            OFFSET   0.000424 -41.789200   0.005205
            CHANNELS 3 Zrotation Xrotation Yrotation
            JOINT RightAnkle
            {
                OFFSET   0.000000 -41.133200  -0.000155
                CHANNELS 3 Zrotation Xrotation Yrotation
                JOINT RightToe
                {
                    OFFSET   0.000000  -6.358960  14.674500
                    CHANNELS 3 Zrotation Xrotation Yrotation
                    End Site
                    {
                        OFFSET   0.000000   0.000000   3.913200
                    }
                }
            }
        }
    }
}
MOTION
Frames: 4
Frame Time:   0.016667
 -1.784420  89.766400  -3.224700   3.204130 -13.000200   9.504500   2.641730   9.272040  -0.877191   5.539860  18.491200  -2.237830   8.860780   6.516730  -1.013620  15.038700  12.267700  35.054000   2.272140  -3.281760   5.576590 -17.558800 -28.298000 -57.899300  33.911300 -12.361400 -70.930600  35.757600  24.637500 -40.039800  59.040400  54.333300 -108.293000  16.424400  -0.002419   0.000769  13.212200  -0.001363   0.001322 -34.556100   8.880590 -12.636500 -29.080800   0.000303   0.001489 -20.356600  -0.000789   0.001541 -28.759400   1.475950  -2.687050 -42.088000   0.001355   0.001777 -28.030600  -0.003651  -0.000000 -30.778500   1.569630  -2.633480 -46.220900   0.001015  -0.001271 -30.783100   0.005922  -0.008238 -29.378000  -1.097430   1.945990 -44.097400  -0.002623  -0.001001 -29.368900  -0.001936   0.002216   8.624170   1.467930   8.443470  66.810400   7.457910  -0.323826   1.451100  -8.669220  19.731400 -13.017600 -23.842700   9.490600 -35.439600  30.424200  74.555000  24.056800  -0.004700  -0.014719   7.028400  -0.012395  -0.002195  21.746500   0.231863   0.580973  17.793500  -0.001684  -0.001048  12.455500  -0.000502   0.002804  22.178000  -0.713337  -1.749460  22.188900   0.000756  -0.001231  14.777800  -0.000757   0.009851  21.855500  -3.352790  -8.295940  22.098700  -0.001534  -0.003680  14.717700  -0.002179   0.002383  27.858400  -4.205830  -7.899900  42.223300  -0.005708  -0.001619  28.120700  -0.005072   0.002239  -0.836666   8.699210   0.025891   1.647140   5.582540   6.564380  -7.347920  -2.213900   0.910001  -0.000000   0.000000   0.000000   1.581950  11.408700  -7.579020  -0.704699   5.179680 -12.054600  -9.573080  -0.733751  -4.752220   0.000000   0.000000  -0.000000
 -1.756140  89.768200  -3.184130   3.172450 -13.010800   9.437760   2.664190   9.241980  -0.860601   5.581820  18.431900  -2.206520   8.874150   6.480760  -1.009100  15.054500  12.204700  34.835500   2.310400  -3.262800   5.544490 -17.282700 -28.409500 -57.868100  33.966700 -11.862400 -71.158800  35.786600  24.441100 -40.120400  59.040400  54.333300 -108.293000  16.419900  -0.002393   0.000773  13.209900  -0.001346   0.001296 -34.568800   8.853860 -12.588500 -29.098600   0.000282   0.001572 -20.369000  -0.000872   0.001628 -28.749700   1.658270  -3.018710 -42.142600   0.001166   0.001714 -28.067000  -0.003828   0.000047 -30.757900   1.762790  -2.958980 -46.213500   0.001055  -0.001326 -30.778100   0.005878  -0.008156 -29.345900  -1.105970   1.962560 -44.049800  -0.002692  -0.000817 -29.337200  -0.002035   0.002232   8.603670   1.479470   8.390220  66.778800   7.467360  -0.257351   1.424790  -8.756070  19.518500 -13.149200 -23.915600   9.421780 -35.446500  30.440700  74.568600  23.954600  -0.003954  -0.009307   6.977310  -0.007147  -0.002440  21.796000   0.223745   0.558215  17.834000  -0.001609  -0.000976  12.483800  -0.000472   0.002853  22.220300  -0.722622  -1.766120  22.231500   0.000776  -0.001314  14.806200  -0.000720   0.009856  21.908000  -3.356310  -8.287830  22.150800  -0.001537  -0.003857  14.752400  -0.002334   0.002408  27.900600  -4.205640  -7.892020  42.285400  -0.005757  -0.001715  28.162100  -0.005180   0.002243  -0.835544   8.758680   0.020020   1.639530   5.549270   6.598750  -7.310850  -2.245790   0.949251   0.000000   0.000000   0.000000   1.590730  11.442200  -7.580770  -0.688761   5.170360 -12.078300  -9.571920  -0.741657  -4.673470  -0.000000   0.000000   0.000000
 -1.734200  89.772200  -3.145250   3.148140 -13.024800   9.409590   2.683390   9.221230  -0.850304   5.618220  18.390100  -2.186900   8.880780   6.408650  -0.999167  15.056700  12.060400  34.589700   2.350210  -3.244030   5.477170 -16.902100 -28.520500 -57.720800  34.113900 -11.380700 -71.483800  35.815200  24.121000 -40.061400  59.040400  54.333300 -108.293000  16.394300  -0.002364   0.000777  13.197100  -0.001327   0.001268 -34.614200   8.741590 -12.417500 -29.101100   0.000266   0.001656 -20.370800  -0.000958   0.001712 -28.745300   1.728780  -3.146720 -42.150400   0.000975   0.001646 -28.072200  -0.004006   0.000090 -30.738400   1.836990  -3.084900 -46.183700   0.001094  -0.001386 -30.758300   0.005840  -0.008073 -29.277400  -1.165700   2.078600 -43.949200  -0.002757  -0.000626 -29.270100  -0.002131   0.002250   8.597760   1.485160   8.343940  66.733700   7.484910  -0.138599   1.411940  -8.894960  19.267900 -13.262700 -23.982700   9.351830 -35.447700  30.443700  74.571100  23.850800  -0.003554  -0.001844   6.925420  -0.001900  -0.002687  21.852800   0.222585   0.554964  17.880500  -0.001534  -0.000906  12.516300  -0.000442   0.002903  22.288600  -0.725135  -1.768500  22.299800   0.000790  -0.001400  14.851700  -0.000707   0.009860  21.964000  -3.357020  -8.261470  22.206500  -0.001557  -0.004049  14.789500  -0.002499   0.002435  27.949500  -4.204000  -7.866480  42.358000  -0.005805  -0.001809  28.210400  -0.005289   0.002257  -0.833646   8.817350   0.019184   1.634610   5.522470   6.608940  -7.277290  -2.277680   0.966548   0.000000   0.000000   0.000000   1.603030  11.467700  -7.587410  -0.680175   5.168460 -12.111600  -9.572180  -0.757107  -4.607030  -0.000000   0.000000  -0.000000
 -1.719160  89.780300  -3.111530   3.135480 -13.048200   9.411210   2.696360   9.216270  -0.856053   5.643950  18.378900  -2.200110   8.876200   6.326880  -0.986320  15.041200  11.906700  34.364200   2.376400  -3.247680   5.385510 -16.423500 -28.627000 -57.483900  34.231600 -10.939000 -71.853500  35.972200  23.736100 -39.985100  59.040400  54.333300 -108.293000  16.334200  -0.002329   0.000748  13.167000  -0.001312   0.001232 -34.640700   8.508160 -12.088300 -29.075500   0.000249   0.001743 -20.352900  -0.001047   0.001796 -28.752100   1.571980  -2.859430 -42.009500   0.000781   0.001566 -27.978400  -0.004188   0.000174 -30.711700   1.669150  -2.803960 -46.125800   0.001149  -0.001449 -30.719800   0.005806  -0.007989 -29.191400  -1.336490   2.395470 -43.829100  -0.002817  -0.000429 -29.190100  -0.002237   0.002262   8.604850   1.473730   8.331660  66.681000   7.507870  -0.026160   1.408730  -9.055730  19.021100 -13.337800 -24.060300   9.298120 -35.443500  30.433500  74.562800  23.690800  -0.003557   0.000947   6.845390  -0.001904  -0.002941  21.907000   0.223519   0.556964  17.924800  -0.001466  -0.000833  12.547400  -0.000413   0.002950  22.339700  -0.724574  -1.766060  22.350800   0.000799  -0.001489  14.885600  -0.000713   0.009861  22.000600  -3.344180  -8.210610  22.240800  -0.001625  -0.004253  14.812400  -0.002673   0.002462  27.990500  -4.186630  -7.817130  42.415300  -0.005853  -0.001903  28.248600  -0.005401   0.002283  -0.828335   8.872420   0.024027   1.628930   5.511530   6.603920  -7.250200  -2.308480   0.966086  -0.000000   0.000000   0.000000   1.621480  11.491700  -7.619320  -0.678202   5.193890 -12.122700  -9.576610  -0.773757  -4.571850   0.000000   0.000000   0.000000
